<svg id="Layer_1" data-name="Layer 1" xmlns="http://www.w3.org/2000/svg" viewBox="0 0 612 332.88"><defs><style>.cls-1{fill:#fff;}</style></defs><title>Artboard 2</title><path class="cls-1" d="M577.49,16.88a20,20,0,0,1,20,20v257.2a20,20,0,0,1-20,20h-543a20,20,0,0,1-20-20V36.88a20,20,0,0,1,20-20ZM25.94,294.08a8.59,8.59,0,0,0,8.57,8.57h266.3V262h11.43v40.66H577.49a8.58,8.58,0,0,0,8.57-8.57V36.88a8.57,8.57,0,0,0-8.57-8.57H312.24V82H300.81V28.31H34.51a8.58,8.58,0,0,0-8.57,8.57Z"/><path class="cls-1" d="M577.49,316.23h-543a22.17,22.17,0,0,1-22.14-22.15V36.88A22.16,22.16,0,0,1,34.51,14.74h543a22.16,22.16,0,0,1,22.14,22.14v257.2A22.17,22.17,0,0,1,577.49,316.23ZM34.51,19A17.88,17.88,0,0,0,16.65,36.88v257.2a17.88,17.88,0,0,0,17.86,17.86h543a17.88,17.88,0,0,0,17.86-17.86V36.88A17.88,17.88,0,0,0,577.49,19Z"/><path class="cls-1" d="M303,304.8H34.51A10.72,10.72,0,0,1,23.8,294.08V36.88A10.72,10.72,0,0,1,34.51,26.17H303V82h-4.29V30.45H34.51a6.44,6.44,0,0,0-6.43,6.43v257.2a6.44,6.44,0,0,0,6.43,6.43H298.67V262H303Z"/><path class="cls-1" d="M577.49,304.8H310.1V262h4.29v38.52h263.1a6.44,6.44,0,0,0,6.43-6.43V36.88a6.44,6.44,0,0,0-6.43-6.43H314.39V82H310.1V26.17H577.49A10.72,10.72,0,0,1,588.2,36.88v257.2A10.72,10.72,0,0,1,577.49,304.8Z"/><path class="cls-1" d="M152.79,207.92H128.4L86.65,123h26l28.54,60.74L169.89,123h25.65Z"/><path class="cls-1" d="M254.51,210.68c-29.8,0-54.57-16.47-54.57-45.26s24.77-45.14,54.57-45.14,54.57,16.47,54.57,45.14S284.31,210.68,254.51,210.68Zm0-70.16c-20.24,0-30.55,9.81-30.55,24.9s10.31,24.89,30.55,24.89,30.68-9.68,30.68-24.89S274.88,140.52,254.51,140.52Z"/><path class="cls-1" d="M405.78,144.29H372.46v63.63H349.58V144.29h-33.2V123h89.4Z"/><path class="cls-1" d="M467.39,210.68c-29.8,0-54.57-16.47-54.57-45.26s24.77-45.14,54.57-45.14S522,136.75,522,165.42,497.19,210.68,467.39,210.68Zm0-70.16c-20.24,0-30.55,9.81-30.55,24.9s10.31,24.89,30.55,24.89,30.68-9.68,30.68-24.89S487.76,140.52,467.39,140.52Z"/></svg>